<svg width="19" height="16" viewBox="0 0 19 16" fill="none" xmlns="http://www.w3.org/2000/svg">
<path d="M15.8125 2.03125C18.1562 4 17.8125 7.21875 16.1562 8.9375L10.6562 14.5312C10.3438 14.8438 9.9375 15.0312 9.5 15.0312C9.03125 15.0312 8.625 14.8438 8.3125 14.5312L2.84375 8.9375C1.15625 7.21875 0.8125 4 3.15625 2.03125C4.96875 0.5 7.75 0.71875 9.5 2.5C11.2188 0.71875 14 0.5 15.8125 2.03125ZM15.0625 7.875C16.2188 6.71875 16.4375 4.53125 14.8438 3.15625C13.625 2.15625 11.75 2.3125 10.5938 3.5L9.5 4.625L8.40625 3.5C7.21875 2.3125 5.34375 2.15625 4.125 3.1875C2.53125 4.53125 2.75 6.71875 3.90625 7.875L9.375 13.4688C9.46875 13.5312 9.53125 13.5312 9.59375 13.4688L15.0625 7.875Z" fill="white"/>
</svg>
